<svg width="18" height="18" viewBox="0 0 18 18" fill="none" xmlns="http://www.w3.org/2000/svg">
<path fill-rule="evenodd" clip-rule="evenodd" d="M11.6698 5.05011C11.6187 5.07716 11.5573 5.12145 11.5334 5.1485C11.5095 5.17558 10.5791 6.54175 9.46587 8.18444C8.35266 9.82714 7.43692 11.1766 7.43092 11.1833C7.42492 11.1899 6.98142 10.7574 6.44538 10.2221C5.90933 9.68683 5.43711 9.23636 5.39602 9.22109C5.29946 9.1852 5.10977 9.18549 5.01451 9.2217C4.90463 9.26349 4.10732 10.0612 4.0479 10.1889C3.9874 10.3188 3.98432 10.4379 4.03805 10.568C4.0663 10.6365 4.54492 11.1337 5.59779 12.1885C7.26523 13.859 7.2657 13.8594 7.59528 13.8859C7.80361 13.9026 7.9797 13.8297 8.14409 13.6586C8.24171 13.5571 13.0559 6.48756 13.1604 6.2924C13.249 6.12687 13.2351 5.91605 13.1255 5.76212C13.0763 5.69309 12.3899 5.20598 12.1422 5.06437C12.002 4.98422 11.8056 4.9783 11.6698 5.05011Z" fill="#363636"/>
<circle cx="9" cy="9" r="8.75" stroke="#363636" stroke-width="0.5"/>
</svg>
