<svg width="159" height="130" viewBox="0 0 159 130" fill="none" xmlns="http://www.w3.org/2000/svg">
<path d="M61.4005 39.0038C31.389 54.8559 29.5265 93.6497 57.8133 112.64L58.6494 111.394L57.8133 112.64C76.532 125.206 101.839 118.812 115.315 98.5393C126.651 81.4874 122.102 61.8012 110.383 48.8609C98.6644 35.9206 79.5133 29.4362 61.4005 39.0038ZM61.4005 39.0038L62.1011 40.3301L61.4005 39.0038C61.4005 39.0038 61.4005 39.0038 61.4005 39.0038ZM56.0068 16.582C56.0068 6.33871 58.2315 5.42497 80.8899 6.35941C101.074 7.1933 101.642 7.42987 102.548 15.3489M15.8748 39.7446C12.9086 47.5099 17.1961 53.0514 26.1742 53.0514C35.779 53.0514 40.4637 45.8687 35.0992 39.3691M114.065 97.709C135.815 64.995 96.8539 21.9727 62.1011 40.3301M78.3151 112.193C109.893 112.193 126.192 77.2195 105.294 54.3052C95.1207 43.1482 78.221 38.6357 66.3061 43.8934C53.1054 49.7188 45.7075 61.6712 45.7075 77.1722M70.2081 100.151C82.991 105.471 94.3762 100.985 101.527 87.8087M102.486 66.9378C96.6949 54.7369 85.3274 49.9081 71.2468 53.6724M101.058 15.5194L101.058 15.5198L101.799 21.9808H79.7423C74.0096 21.9808 69.6937 21.9654 66.4292 21.84C63.1353 21.7135 61.0472 21.4774 59.7048 21.0871C58.4326 20.7173 58.0571 20.2801 57.8603 19.8472C57.5819 19.2349 57.5068 18.3102 57.5068 16.582C57.5068 14.0192 57.6555 12.2876 58.1143 11.0552C58.5244 9.95315 59.1965 9.21084 60.5215 8.66653C61.9555 8.0774 64.1324 7.73433 67.4934 7.62116C70.8255 7.50897 75.1616 7.62445 80.828 7.85813C85.8843 8.06703 89.6645 8.23689 92.5262 8.49608C95.4163 8.75784 97.2103 9.10002 98.3728 9.5826C99.4286 10.0209 99.9122 10.5499 100.243 11.3153C100.635 12.2228 100.825 13.4884 101.058 15.5194ZM103.481 24.9808H105.163L104.971 23.3098L104.038 15.1783C103.817 13.2498 103.597 11.5163 102.997 10.1261C102.335 8.59391 101.245 7.52683 99.523 6.81184C97.9073 6.14117 95.7183 5.77291 92.7968 5.50831C89.8471 5.24115 85.9874 5.06873 80.9519 4.86068L80.9517 4.86068C75.289 4.62715 70.8501 4.50644 67.3924 4.62286C63.9636 4.73831 61.3359 5.08867 59.3815 5.89157C57.3179 6.7393 56.0177 8.08764 55.3027 10.0087C54.6362 11.7993 54.5068 14.0231 54.5068 16.582C54.5068 18.182 54.5359 19.7836 55.1293 21.0889C55.8044 22.5736 57.0685 23.445 58.8674 23.9679C60.5959 24.4703 63.0103 24.7109 66.314 24.8378C69.6471 24.9659 74.0237 24.9808 79.7423 24.9808H103.481ZM17.2761 40.2799L17.2763 40.2793C17.6228 39.3711 18.4467 38.5561 19.7733 37.9409C21.0952 37.3279 22.7975 36.9751 24.6303 36.9392C28.3734 36.8659 32.1093 38.1045 33.9427 40.3243C36.2846 43.162 36.274 45.8654 34.9938 47.8281C33.6509 49.887 30.6392 51.5514 26.1742 51.5514C21.9593 51.5514 19.172 50.2531 17.7317 48.3919C16.3199 46.5677 15.9194 43.8315 17.2761 40.2799ZM36.2561 38.4143L36.2557 38.4139C33.6075 35.2075 28.7906 33.8572 24.5715 33.9398C22.4233 33.9819 20.2922 34.3934 18.5112 35.2193C16.7349 36.043 15.1862 37.3415 14.4734 39.2099C12.8641 43.4234 13.1244 47.3403 15.3592 50.228C17.5655 53.079 21.4109 54.5514 26.1742 54.5514C31.3139 54.5514 35.4471 52.6245 37.5065 49.4671C39.6287 46.2136 39.2783 42.076 36.2561 38.4143ZM62.8017 41.6565L62.8017 41.6565C79.4418 32.8667 97.1474 38.7147 108.16 50.8747C119.172 63.0345 123.229 81.2165 112.816 96.8785L112.816 96.8786C100.114 115.988 76.6142 121.647 59.4854 110.149C33.0564 92.4061 34.8252 56.4336 62.8017 41.6565ZM104.185 55.3158L104.185 55.316C124.138 77.1928 108.691 110.693 78.3151 110.693C74.4945 110.693 71.3828 110.098 68.2465 108.63C65.0776 107.146 61.8034 104.733 57.7144 100.967C52.7544 96.3985 50.2393 93.6873 48.8696 90.5847C47.5012 87.4851 47.2075 83.8392 47.2075 77.1722C47.2075 62.2087 54.3047 50.8291 66.9117 45.2657C78.1219 40.319 94.3554 44.5352 104.185 55.3158ZM55.6821 103.174L55.6822 103.174C59.865 107.026 63.4017 109.674 66.9744 111.347C70.5798 113.035 74.1405 113.693 78.3151 113.693C111.094 113.693 128.247 77.2461 106.402 53.2944C95.8859 41.7612 78.32 36.9525 65.7006 42.5211L66.3061 43.8934L65.7005 42.5211C51.906 48.6085 44.2075 61.1338 44.2075 77.1722C44.2075 83.7912 44.4685 88.0436 46.1251 91.7963C47.7805 95.5458 50.7608 98.6409 55.6821 103.174ZM70.8594 52.2233L70.8593 52.2233C59.5031 55.2602 53.7298 65.4165 53.4986 75.7484C53.2674 86.0775 58.5518 96.924 69.6316 101.536L69.6317 101.536C76.3181 104.319 82.7684 104.582 88.5295 102.312C94.2748 100.048 99.1473 95.3384 102.845 88.5242C105.54 83.5627 107.135 80.4335 107.28 77.2712C107.426 74.0793 106.091 71.0348 103.841 66.2947L103.841 66.2946C100.81 59.9084 96.269 55.3614 90.5613 52.9375C84.865 50.5183 78.1503 50.2741 70.8594 52.2233ZM100.209 87.0928L100.208 87.0933C96.7557 93.4557 92.3603 97.5776 87.4296 99.5207C82.5147 101.458 76.881 101.304 70.7844 98.7666C61.0509 94.7147 56.289 85.1471 56.4978 75.8155C56.7066 66.4867 61.8593 57.7355 71.6343 55.1215C78.424 53.3063 84.4334 53.5944 89.3887 55.6988C94.3327 57.7984 98.371 61.7663 101.131 67.581C103.46 72.4897 104.389 74.8285 104.283 77.1337C104.176 79.4685 103.002 81.9503 100.209 87.0928ZM148.228 33.8908C148.43 33.9664 148.523 34.0187 148.55 34.0334C148.647 34.1463 148.821 34.4119 149.027 34.9412C149.248 35.5067 149.469 36.2738 149.681 37.2684C150.105 39.2569 150.465 42.0159 150.754 45.6005C151.332 52.7617 151.615 63.0513 151.615 76.7079C151.615 90.3645 151.332 100.654 150.754 107.815C150.465 111.4 150.105 114.159 149.681 116.147C149.469 117.142 149.248 117.909 149.027 118.475C148.821 119.004 148.647 119.27 148.55 119.382C148.523 119.397 148.43 119.449 148.228 119.525C147.925 119.639 147.491 119.764 146.912 119.893C145.757 120.152 144.16 120.4 142.158 120.634C138.163 121.1 132.691 121.491 126.216 121.805C113.273 122.433 96.4164 122.747 79.5481 122.747C62.6798 122.747 45.823 122.433 32.8801 121.805C26.4049 121.491 20.9333 121.1 16.9378 120.634C14.9361 120.4 13.3388 120.152 12.1841 119.893C11.6051 119.764 11.1712 119.639 10.8679 119.525C10.6845 119.456 10.5911 119.407 10.5555 119.387C10.5292 119.351 10.4792 119.274 10.4122 119.138C10.3113 118.933 10.1982 118.649 10.0785 118.274C9.83851 117.523 9.60289 116.506 9.37845 115.236C8.93047 112.701 8.55129 109.299 8.24591 105.294C7.63581 97.2923 7.32938 87.0084 7.32938 76.7079C7.32938 66.4074 7.63581 56.1236 8.24591 48.1219C8.55129 44.1168 8.93047 40.715 9.37845 38.18C9.60289 36.9099 9.83851 35.8932 10.0785 35.1418C10.1982 34.7667 10.3113 34.4826 10.4122 34.278C10.4792 34.142 10.5292 34.0652 10.5555 34.0285C10.591 34.009 10.6845 33.9595 10.8679 33.8908C11.1712 33.777 11.6051 33.6521 12.1841 33.5224C13.3388 33.2638 14.9361 33.0154 16.9378 32.7819C20.9333 32.3158 26.4049 31.9246 32.8801 31.6106C45.823 30.9831 62.6798 30.6687 79.5481 30.6687C96.4164 30.6687 113.273 30.9831 126.216 31.6106C132.691 31.9246 138.163 32.3158 142.158 32.7819C144.16 33.0154 145.757 33.2638 146.912 33.5224C147.491 33.6521 147.925 33.777 148.228 33.8908ZM154.615 76.7079C154.615 63.0294 154.332 52.6432 153.745 45.3592C153.451 41.7211 153.078 38.8152 152.615 36.6428C152.384 35.5568 152.122 34.6195 151.822 33.8499C151.53 33.1026 151.158 32.3993 150.647 31.8853C150.253 31.4902 149.721 31.2465 149.282 31.0818C148.799 30.9007 148.218 30.7405 147.568 30.595C146.265 30.3031 144.549 30.0404 142.506 29.8021C138.411 29.3244 132.861 28.9293 126.361 28.6141C113.354 27.9835 96.4454 27.6687 79.5481 27.6687C62.6508 27.6687 45.7422 27.9835 32.7348 28.6141C26.235 28.9293 20.6853 29.3244 16.5903 29.8021C14.5468 30.0404 12.8314 30.3031 11.5284 30.595C10.8785 30.7405 10.2972 30.9007 9.81432 31.0818C9.37527 31.2465 8.84279 31.4902 8.44961 31.8853C7.87049 32.4673 7.49663 33.3649 7.22063 34.2292C6.9234 35.16 6.66021 36.3225 6.42422 37.6579C5.95133 40.3338 5.56312 43.8473 5.25459 47.8938C4.63687 55.9954 4.32938 66.36 4.32938 76.7079C4.32938 87.0558 4.63687 97.4204 5.25459 105.522C5.56312 109.568 5.95133 113.082 6.42422 115.758C6.66021 117.093 6.9234 118.256 7.22063 119.187C7.49663 120.051 7.87049 120.949 8.44961 121.53C8.84279 121.926 9.37527 122.169 9.81432 122.334C10.2972 122.515 10.8785 122.675 11.5284 122.821C12.8314 123.113 14.5468 123.375 16.5903 123.614C20.6853 124.091 26.235 124.487 32.7348 124.802C45.7422 125.432 62.6508 125.747 79.5481 125.747C96.4454 125.747 113.354 125.432 126.361 124.802C132.861 124.487 138.411 124.091 142.506 123.614C144.549 123.375 146.265 123.113 147.568 122.821C148.218 122.675 148.799 122.515 149.282 122.334C149.721 122.169 150.253 121.926 150.647 121.53C151.158 121.017 151.53 120.313 151.822 119.566C152.122 118.796 152.384 117.859 152.615 116.773C153.078 114.601 153.451 111.695 153.745 108.057C154.332 100.773 154.615 90.3864 154.615 76.7079ZM30.0633 43.4321C30.8335 43.8191 30.9463 44.1306 30.9628 44.1802C30.9463 44.2299 30.8335 44.5413 30.0633 44.9283C29.2449 45.3395 28.0133 45.6373 26.5802 45.6373C25.1472 45.6373 23.9156 45.3395 23.0972 44.9283C22.3269 44.5413 22.2142 44.2299 22.1977 44.1802C22.2142 44.1306 22.3269 43.8191 23.0972 43.4321C23.9156 43.0209 25.1472 42.7232 26.5802 42.7232C28.0133 42.7232 29.2449 43.0209 30.0633 43.4321ZM26.5802 48.6373C28.3841 48.6373 30.0952 48.2697 31.4102 47.609C32.6335 46.9944 33.9656 45.8676 33.9656 44.1802C33.9656 42.4928 32.6335 41.3661 31.4102 40.7515C30.0952 40.0907 28.3841 39.7232 26.5802 39.7232C24.7764 39.7232 23.0653 40.0907 21.7503 40.7515C20.527 41.3661 19.1949 42.4928 19.1949 44.1802C19.1949 45.8676 20.527 46.9944 21.7503 47.609C23.0653 48.2697 24.7764 48.6373 26.5802 48.6373ZM91.8593 64.3261C93.7335 66.2096 95.4556 68.5993 96.7032 70.92C97.9772 73.2899 98.6467 75.3845 98.6467 76.7079C98.6467 78.3383 97.9869 80.3661 96.7394 82.5688C95.5052 84.748 93.762 86.981 91.7614 88.9913C89.7608 91.0018 87.539 92.7532 85.3713 93.9929C83.1799 95.2462 81.1653 95.9073 79.5481 95.9073C77.9309 95.9073 75.9163 95.2462 73.7249 93.9929C71.5572 92.7532 69.3354 91.0018 67.3348 88.9913C65.3342 86.981 63.591 84.748 62.3568 82.5688C61.1093 80.3661 60.4495 78.3383 60.4495 76.7079C60.4495 75.0775 61.1093 73.0497 62.3568 70.847C63.591 68.6678 65.3342 66.4348 67.3348 64.4244C69.3354 62.414 71.5572 60.6626 73.7249 59.4229C75.9163 58.1696 77.9309 57.5085 79.5481 57.5085C80.8596 57.5085 82.9406 58.1793 85.299 59.4595C87.6075 60.7127 89.9851 62.4427 91.8593 64.3261ZM101.647 76.7079C101.647 74.6307 100.69 72.0014 99.3455 69.4995C97.9742 66.9485 96.0841 64.3186 93.9858 62.21C91.8874 60.1013 89.2698 58.2016 86.7303 56.823C84.2406 55.4714 81.6207 54.5085 79.5481 54.5085C77.1956 54.5085 74.6506 55.4375 72.2355 56.8187C69.7966 58.2136 67.3649 60.1412 65.2083 62.3083C63.0517 64.4755 61.1339 66.9187 59.7464 69.3686C58.3721 71.7951 57.4495 74.3493 57.4495 76.7079C57.4495 79.0665 58.3721 81.6207 59.7464 84.0472C61.1339 86.4971 63.0517 88.9403 65.2083 91.1075C67.3649 93.2747 69.7966 95.2022 72.2355 96.5971C74.6506 97.9783 77.1956 98.9073 79.5481 98.9073C81.9006 98.9073 84.4456 97.9783 86.8607 96.5971C89.2996 95.2022 91.7313 93.2747 93.8879 91.1075C96.0446 88.9403 97.9623 86.4971 99.3499 84.0472C100.724 81.6207 101.647 79.0665 101.647 76.7079ZM56.0286 4.31267L56.0287 4.31256C56.6781 3.93259 57.774 3.53942 59.3183 3.1768C60.8358 2.82047 62.6864 2.51594 64.7762 2.26822C68.9543 1.77297 74.0026 1.51473 79.0851 1.50061C84.1673 1.4865 89.2494 1.71658 93.4946 2.18878C97.823 2.67025 101.039 3.38101 102.573 4.20583C105.577 5.82189 107.475 9.39767 107.475 14.7131V23.4808V24.9808H108.975H128.102C135.588 24.9808 141.061 25.1108 145.154 26.0695C149.134 27.002 151.665 28.684 153.415 31.7736C155.241 34.9965 156.298 39.8825 156.865 47.4294C157.43 54.9399 157.5 64.861 157.5 78.0179C157.5 98.4703 157.423 109.064 156.586 115.115C156.172 118.113 155.589 119.828 154.843 121.027C154.104 122.213 153.127 123.027 151.595 124.104L151.595 124.105C149.257 125.751 145.252 126.904 134.5 127.576C123.833 128.244 106.854 128.435 78.8919 128.435C73.1509 128.435 67.8325 128.454 62.9041 128.471C49.5741 128.518 39.0977 128.555 30.8319 128.184C19.4407 127.673 12.6504 126.388 8.49788 123.583C4.51547 120.893 2.70255 116.601 1.96247 109.071C1.41954 103.547 1.47347 96.553 1.54267 87.5787C1.56843 84.2383 1.59631 80.6235 1.59631 76.7079C1.59631 63.9219 1.67458 54.2697 2.24871 46.954C2.82559 39.6032 3.89196 34.8377 5.7204 31.6879C7.47497 28.6652 10.0108 27.0014 13.9943 26.0736C18.0834 25.1212 23.5436 24.9808 30.9942 24.9808H50.1215H51.6215V23.4808V14.7575C51.6215 12.3552 52.1058 10.0752 52.9213 8.21608C53.7443 6.33962 54.8544 4.99952 56.0286 4.31267Z" stroke="white" stroke-width="3"/>
</svg>
