<svg width="19" height="18" viewBox="0 0 19 18" fill="none" xmlns="http://www.w3.org/2000/svg">
<path d="M5.51 0H13.49C16.53 0 19 2.34 19 5.22V12.78C19 14.1644 18.4195 15.4922 17.3862 16.4711C16.3528 17.45 14.9513 18 13.49 18H5.51C2.47 18 0 15.66 0 12.78V5.22C0 3.83557 0.580516 2.50784 1.61384 1.5289C2.64717 0.549963 4.04866 0 5.51 0ZM5.32 1.8C4.41296 1.8 3.54307 2.14136 2.90169 2.74897C2.26032 3.35659 1.9 4.1807 1.9 5.04V12.96C1.9 14.751 3.4295 16.2 5.32 16.2H13.68C14.587 16.2 15.4569 15.8586 16.0983 15.251C16.7397 14.6434 17.1 13.8193 17.1 12.96V5.04C17.1 3.249 15.5705 1.8 13.68 1.8H5.32ZM14.4875 3.15C14.8024 3.15 15.1045 3.26853 15.3272 3.4795C15.5499 3.69048 15.675 3.97663 15.675 4.275C15.675 4.57337 15.5499 4.85952 15.3272 5.0705C15.1045 5.28147 14.8024 5.4 14.4875 5.4C14.1726 5.4 13.8705 5.28147 13.6478 5.0705C13.4251 4.85952 13.3 4.57337 13.3 4.275C13.3 3.97663 13.4251 3.69048 13.6478 3.4795C13.8705 3.26853 14.1726 3.15 14.4875 3.15ZM9.5 4.5C10.7598 4.5 11.968 4.97411 12.8588 5.81802C13.7496 6.66193 14.25 7.80653 14.25 9C14.25 10.1935 13.7496 11.3381 12.8588 12.182C11.968 13.0259 10.7598 13.5 9.5 13.5C8.24022 13.5 7.03204 13.0259 6.14124 12.182C5.25044 11.3381 4.75 10.1935 4.75 9C4.75 7.80653 5.25044 6.66193 6.14124 5.81802C7.03204 4.97411 8.24022 4.5 9.5 4.5ZM9.5 6.3C8.74413 6.3 8.01922 6.58446 7.48475 7.09081C6.95027 7.59716 6.65 8.28392 6.65 9C6.65 9.71608 6.95027 10.4028 7.48475 10.9092C8.01922 11.4155 8.74413 11.7 9.5 11.7C10.2559 11.7 10.9808 11.4155 11.5153 10.9092C12.0497 10.4028 12.35 9.71608 12.35 9C12.35 8.28392 12.0497 7.59716 11.5153 7.09081C10.9808 6.58446 10.2559 6.3 9.5 6.3Z" fill="#363636"/>
</svg>
