<svg width="19" height="19" viewBox="0 0 19 19" fill="none" xmlns="http://www.w3.org/2000/svg">
<path d="M12.4165 0H6.5835C1.2635 0 0 1.2635 0 6.5835V12.4165C0 17.7365 1.2635 19 6.5835 19H12.4165C17.7365 19 19 17.7365 19 12.4165V6.5835C19 1.2635 17.7365 0 12.4165 0ZM15.3425 13.5565H13.9555C13.433 13.5565 13.2715 13.129 12.35 12.1885C11.514 11.4 11.153 11.286 10.9535 11.286C10.678 11.286 10.5925 11.362 10.5925 11.761V13.0055C10.5925 13.338 10.488 13.547 9.6045 13.547C8.1415 13.547 6.517 12.654 5.377 11.0105C3.6575 8.5975 3.192 6.7735 3.192 6.4125C3.192 6.213 3.2585 6.023 3.6575 6.023H5.054C5.4055 6.023 5.5385 6.175 5.6715 6.555C6.3555 8.55 7.4955 10.26 7.961 10.26C8.1415 10.26 8.2175 10.1745 8.2175 9.7375V7.695C8.17 6.764 7.6665 6.6785 7.6665 6.346C7.6665 6.175 7.7995 6.023 8.018 6.023H10.1935C10.488 6.023 10.5925 6.175 10.5925 6.536V9.2815C10.5925 9.576 10.716 9.6805 10.811 9.6805C10.982 9.6805 11.134 9.576 11.4475 9.253C12.445 8.1415 13.1575 6.422 13.1575 6.422C13.2525 6.2225 13.4045 6.0325 13.775 6.0325H15.1335C15.5515 6.0325 15.6465 6.251 15.5515 6.5455C15.3805 7.353 13.6895 9.7375 13.7085 9.7375C13.5565 9.975 13.4995 10.0795 13.7085 10.355C13.851 10.5545 14.3355 10.9725 14.6585 11.343C15.2475 12.0175 15.7035 12.578 15.827 12.9675C15.9315 13.357 15.7415 13.5565 15.3425 13.5565Z" fill="#363636"/>
</svg>
