<svg width="19" height="18" viewBox="0 0 19 18" fill="none" xmlns="http://www.w3.org/2000/svg">
<path d="M9.53819 0C4.32513 0 0.0763821 4.005 0.0763821 8.919C0.0763821 10.494 0.515578 12.024 1.33668 13.374L0 18L5.01256 16.758C6.39698 17.469 7.95327 17.847 9.53819 17.847C14.7513 17.847 19 13.842 19 8.928C19 6.543 18.0166 4.302 16.2312 2.619C14.4457 0.927 12.0683 0 9.53819 0ZM9.54774 1.503C11.6482 1.503 13.6151 2.277 15.1045 3.681C16.5844 5.085 17.4055 6.948 17.4055 8.928C17.4055 13.014 13.8729 16.335 9.53819 16.335C8.12512 16.335 6.7407 15.984 5.53769 15.3L5.25126 15.147L2.27236 15.885L3.06482 13.149L2.87387 12.861C2.09095 11.7 1.67085 10.323 1.67085 8.919C1.6804 4.833 5.20352 1.503 9.54774 1.503ZM6.18693 4.797C6.03417 4.797 5.77638 4.851 5.55678 5.076C5.34673 5.301 4.72613 5.85 4.72613 6.939C4.72613 8.037 5.57588 9.09 5.6809 9.243C5.81457 9.396 7.36131 11.646 9.73869 12.6C10.302 12.843 10.7412 12.978 11.0849 13.077C11.6482 13.248 12.1638 13.221 12.5744 13.167C13.0327 13.104 13.9683 12.627 14.1688 12.105C14.3693 11.583 14.3693 11.142 14.3121 11.043C14.2452 10.953 14.0925 10.899 13.8538 10.8C13.6151 10.674 12.4502 10.134 12.2402 10.062C12.0206 9.99 11.8869 9.954 11.7055 10.17C11.5528 10.395 11.0945 10.899 10.9608 11.043C10.8176 11.196 10.6839 11.214 10.4548 11.106C10.2065 10.989 9.44271 10.755 8.54523 9.999C7.83869 9.405 7.37085 8.676 7.22764 8.451C7.11306 8.235 7.21809 8.1 7.33266 8.001C7.43769 7.902 7.59045 7.74 7.68593 7.605C7.81005 7.479 7.84824 7.38 7.92462 7.236C8.001 7.083 7.96281 6.957 7.90553 6.849C7.84824 6.75 7.37085 5.634 7.17035 5.193C6.9794 4.761 6.78844 4.815 6.63568 4.806C6.50201 4.806 6.34925 4.797 6.18693 4.797Z" fill="#363636"/>
</svg>
